<svg height="472pt" viewBox="-76 0 472 472" width="472pt" xmlns="http://www.w3.org/2000/svg"><path d="m16 200h288c8.835938 0 16 7.164062 16 16v240c0 8.835938-7.164062 16-16 16h-288c-8.835938 0-16-7.164062-16-16v-240c0-8.835938 7.164062-16 16-16zm0 0" fill="#efefef"/><path d="m280 256c0 13.253906-10.746094 24-24 24s-24-10.746094-24-24 10.746094-24 24-24 24 10.746094 24 24zm0 0" fill="#55965c"/><path d="m256 288c-17.671875 0-32-14.328125-32-32s14.328125-32 32-32 32 14.328125 32 32c-.019531 17.664062-14.335938 31.980469-32 32zm0-48c-8.835938 0-16 7.164062-16 16s7.164062 16 16 16 16-7.164062 16-16c-.011719-8.832031-7.167969-15.988281-16-16zm0 0" fill="#73c97c"/><g fill="#ff675b"><path d="m34.34375 317.65625 11.3125-11.3125 48 48-11.3125 11.3125zm0 0"/><path d="m34.34375 354.34375 48-48 11.3125 11.3125-48 48zm0 0"/><path d="m34.34375 237.65625 11.3125-11.3125 48 48-11.3125 11.3125zm0 0"/><path d="m34.34375 274.34375 48-48 11.3125 11.3125-48 48zm0 0"/><path d="m130.34375 397.65625 11.3125-11.3125 48 48-11.3125 11.3125zm0 0"/><path d="m130.34375 434.34375 48-48 11.3125 11.3125-48 48zm0 0"/><path d="m226.34375 397.65625 11.3125-11.3125 48 48-11.3125 11.3125zm0 0"/><path d="m226.34375 434.34375 48-48 11.3125 11.3125-48 48zm0 0"/><path d="m226.34375 317.65625 11.3125-11.3125 48 48-11.3125 11.3125zm0 0"/><path d="m226.34375 354.34375 48-48 11.3125 11.3125-48 48zm0 0"/></g><path d="m88 416c0 13.253906-10.746094 24-24 24s-24-10.746094-24-24 10.746094-24 24-24 24 10.746094 24 24zm0 0" fill="#55965c"/><path d="m64 448c-17.671875 0-32-14.328125-32-32s14.328125-32 32-32 32 14.328125 32 32c-.019531 17.664062-14.335938 31.980469-32 32zm0-48c-8.835938 0-16 7.164062-16 16s7.164062 16 16 16 16-7.164062 16-16c-.011719-8.832031-7.167969-15.988281-16-16zm0 0" fill="#73c97c"/><path d="m184 336c0 13.253906-10.746094 24-24 24s-24-10.746094-24-24 10.746094-24 24-24 24 10.746094 24 24zm0 0" fill="#55965c"/><path d="m160 368c-17.671875 0-32-14.328125-32-32s14.328125-32 32-32 32 14.328125 32 32c-.019531 17.664062-14.335938 31.980469-32 32zm0-48c-8.835938 0-16 7.164062-16 16s7.164062 16 16 16 16-7.164062 16-16c-.011719-8.832031-7.167969-15.988281-16-16zm0 0" fill="#73c97c"/><path d="m200 176v56c0 8.835938-7.164062 16-16 16h-48c-8.835938 0-16-7.164062-16-16v-56zm0 0" fill="#a3a3a3"/><path d="m136 248h48v16c0 8.835938-7.164062 16-16 16h-16c-8.835938 0-16-7.164062-16-16zm0 0" fill="#707070"/><path d="m240 120c0 44.183594-35.816406 80-80 80s-80-35.816406-80-80 35.816406-80 80-80 80 35.816406 80 80zm0 0" fill="#ffd04a"/><path d="m152 0h16v16h-16zm0 0" fill="#ffd04a"/><path d="m69.492188 40.804688 11.3125-11.3125 11.3125 11.3125-11.3125 11.3125zm0 0" fill="#ffd04a"/><path d="m40 112h16v16h-16zm0 0" fill="#ffd04a"/><path d="m264 112h16v16h-16zm0 0" fill="#ffd04a"/><path d="m227.882812 40.804688 11.3125-11.3125 11.3125 11.3125-11.3125 11.3125zm0 0" fill="#ffd04a"/></svg>